<svg xmlns="http://www.w3.org/2000/svg" xml:space="preserve" x="0px" y="0px" style="enable-background:new 0 0 500 500" viewBox="0 0 500 500"><path d="M443.617 500H56.373C25.24 500 0 474.77 0 443.648V56.373C0 25.24 25.241 0 56.373 0h387.244C474.738 0 500 25.241 500 56.373v387.275C500 474.769 474.738 500 443.617 500" style="fill:#eabc00"/><path d="M108.175 422.27V173.766H80.664l35.629-96.046h69.009v344.55zM407.596 77.719H219.137a7.695 7.695 0 0 0-7.695 7.695v104.143h75.332v-46.903H340v41.477l-131.272 187.18v50.535h205.686v-67.224H304.372l96.045-134.841c3.012-4.22 5.405-7.891 7.22-11.058 1.816-3.157 3.312-6.22 4.519-9.253 1.186-2.992 2.021-6.303 2.465-9.913.464-3.61.67-7.963.67-13.08V85.414a7.689 7.689 0 0 0-7.695-7.695" style="fill:#fff"/></svg>