<svg xmlns="http://www.w3.org/2000/svg" xml:space="preserve" x="0px" y="0px" style="enable-background:new 0 0 500 500" viewBox="0 0 500 500"><path d="M443.638 500H56.352C25.252 500 0 474.759 0 443.638V56.362C0 25.242 25.252 0 56.352 0h387.286C474.768 0 500 25.241 500 56.362v387.276c0 31.12-25.231 56.362-56.362 56.362" style="fill:#dc7317"/><path d="M107.957 422.277V173.783H80.436l35.619-96.076h69.04v344.57zM407.825 195.418H286.972v-50.514h126.3V77.701H211.217v183.56h129.446v96.055h-54.578v-45.109h-74.868v102.358c0 4.25 3.456 7.695 7.705 7.695H407.825a7.695 7.695 0 0 0 7.695-7.695V203.114a7.695 7.695 0 0 0-7.695-7.696" style="fill:#fff"/></svg>