<svg xmlns="http://www.w3.org/2000/svg" xml:space="preserve" x="0px" y="0px" style="enable-background:new 0 0 500 500" viewBox="0 0 500 500"><path d="M443.62 500H56.35C25.21 500 0 474.79 0 443.65V56.37C0 25.24 25.21 0 56.35 0h387.27c31.13 0 56.36 25.24 56.36 56.37v387.28c0 31.14-25.23 56.35-56.36 56.35" style="fill:#d61d28"/><path d="M105.917 422.269V173.764h-27.52l35.648-96.051h68.975v344.556zM416.625 281.105c-.588-4.198-1.64-7.818-3.136-10.82a23.291 23.291 0 0 0-6.096-7.674c-2.548-2.104-5.787-4.198-9.686-6.302l-22.992-10.82 22.992-12.193c6.911-4.208 11.8-8.86 14.658-13.976 2.846-5.106 4.26-12.77 4.26-22.992V85.403a7.695 7.695 0 0 0-7.695-7.695H217.332c-4.25 0-7.705 3.445-7.705 7.695v110.925c0 9.892 1.454 17.504 4.291 22.754 2.857 5.292 7.757 10.006 14.647 14.214l23.002 12.193-23.002 10.82c-7.84 4.198-12.997 9.18-15.555 14.863-2.547 5.735-3.827 14.142-3.827 25.282V414.569c0 4.25 3.456 7.705 7.706 7.705h192.97c4.239 0 7.684-3.456 7.684-7.705V296.454c0-6.024-.31-11.14-.918-15.349m-75.752 69.883c0 4.25-3.456 7.685-7.695 7.685h-39.61c-4.238 0-7.704-3.435-7.704-7.685v-68.954c0-4.25 3.466-7.695 7.705-7.695h39.609c4.24 0 7.695 3.445 7.695 7.695v68.954zm0-141.91c0 4.249-3.456 7.694-7.695 7.694h-39.61c-4.238 0-7.704-3.445-7.704-7.695v-60.3c0-4.24 3.466-7.685 7.705-7.685h39.609c4.24 0 7.695 3.445 7.695 7.685v60.3z" style="fill:#fff"/></svg>