<svg xmlns="http://www.w3.org/2000/svg" xml:space="preserve" x="0px" y="0px" style="enable-background:new 0 0 500 500" viewBox="0 0 500 500"><path d="M443.642 500H56.38C25.256 500 0 474.764 0 443.632V56.368C0 25.235 25.256 0 56.379 0h387.263C474.775 0 500 25.235 500 56.368v387.264C500 474.764 474.775 500 443.642 500" style="fill:#00964b"/><path d="m144.95 378.216-6.064-38.323-44.366.01-6.064 38.292-57.17.02v-.687l54.138-256.2h62.527l54.138 256.22.02.668h-57.16zm-28.257-174.19-14.129 87.439h28.247l-14.118-87.439zM212.167 378.213V121.316h57.17v205.447h67.246v51.45zM348.693 378.199V121.312l57.17.01-.03 205.447h67.277v51.461z" style="fill:#fff"/></svg>