<svg xmlns="http://www.w3.org/2000/svg" xml:space="preserve" x="0px" y="0px" style="enable-background:new 0 0 509.4483948 509.4589539" viewBox="0 0 509.4483948 509.4589539"><path d="M499.99 61.09v387.29c0 28.46-23.16 51.62-51.64 51.62H61.07c-28.46 0-51.61-23.16-51.61-51.62V61.09c0-28.47 23.15-51.63 51.61-51.63h387.28c28.48 0 51.64 23.16 51.64 51.63z" style="fill:#fff"/><path d="M509.45 61.09v387.29c0 33.68-27.41 61.08-61.1 61.08H61.07C27.4 509.46 0 482.06 0 448.38V61.09C0 27.41 27.4 0 61.07 0h387.28c33.69 0 61.1 27.41 61.1 61.09zm-9.46 387.29V61.09c0-28.47-23.16-51.63-51.64-51.63H61.07c-28.46 0-51.61 23.16-51.61 51.63v387.29c0 28.46 23.15 51.62 51.61 51.62h387.28c28.48 0 51.64-23.16 51.64-51.62z" style="fill:#231815"/><path d="M425.553 274.38h-11.32v76.691h11.32v-38.34h11.077v-9.396h-11.077V274.38zM341.6 341.444h-27.915v-9.06H341.6v9.06zm11.487-17.636h-50.731v26.296h50.731v-26.296zm-34.946-30.825H295.41v24.036c4.203.073 8.323.157 12.538.157 9.459 0 23.857-1.208 29.197-2.753-.242-2.911-.642-5.823-.967-8.65-6.149 1.461-16.26 2.344-24.352 2.344-1.776 0-3.468-.074-5.024-.158v-6.642h22.901V278.1h-34.22v8.987h22.66v5.896zm-95.125-4.362h28.566c0 6.79-.567 13.663-1.46 16.995l10.835 1.124c1.377-5.822 2.028-17.478 2.028-27.095h-39.969v8.976zm15.45-70.143c0-3.963 5.749-6.474 15.46-6.474 10.026 0 15.607 2.595 15.607 6.474 0 3.962-5.58 6.474-15.607 6.474-9.711 0-15.46-2.512-15.46-6.474m-11.561 0c0 9.543 10.194 15.45 27.02 15.45 16.985 0 27.18-5.907 27.18-15.45 0-9.628-10.195-15.618-27.18-15.618-16.826 0-27.02 5.99-27.02 15.618m54.525 55.902h-11.245v56.712h11.245v-24.993h9.627v-9.554h-9.627V274.38zm-39.717 51.94H230.3v22.649h52.666v-8.891h-41.252V326.32zm-32.58-102.42h-41.105v-11.329h-11.645v20.39h52.75v-9.06zm-39.896-22.175c-4.288 0-7.2-2.827-7.2-5.98 0-3.07 2.912-6.233 7.2-6.233 4.372 0 7.367 3.164 7.367 6.233 0 3.153-2.995 5.98-7.367 5.98m0 8.418c11.014 0 18.529-6.232 18.529-14.398 0-8.093-7.515-14.483-18.53-14.483-11.077 0-18.518 6.39-18.518 14.483 0 8.166 7.525 14.398 18.519 14.398m11.655 66.423h-23.059v8.334h23.06v-8.334zm36.964 23.616h-10.269V274.38h-11.319v57.763h11.32v-22.65h10.268v-9.311zm-49.828 29.207h-11.656v20.39h52.75v-9.06h-41.094v-11.33zm-5.98-16.826c0-3.07 2.91-6.222 7.2-6.222 4.36 0 7.356 3.153 7.356 6.222 0 3.163-2.995 5.99-7.357 5.99-4.288 0-7.2-2.827-7.2-5.99m-11.329 0c0 8.176 7.515 14.398 18.53 14.398 10.993 0 18.518-6.222 18.518-14.398 0-8.093-7.525-14.483-18.519-14.483-11.088 0-18.529 6.39-18.529 14.483m-77.973 14.325 6.148 7.85c5.907-3.331 13.274-12.948 14.735-19.506 1.86 6.8 8.408 14.64 13.421 17.793l6.149-8.25c-11.32-7.115-14.157-16.332-14.157-30.573v-3.237h11.077v-8.892h-34.21v8.892h12.14v3.237c0 13.915-3.09 24.351-15.303 32.686m.01-50.238h-9.458c-8.261 7.599-16.186 19.654-16.186 35.597v1.692c0 16.018 7.925 28.157 16.186 35.755h9.458c-7.683-8.65-13.988-21.682-13.988-35.586v-2.512c0-14 6.305-26.37 13.988-34.946m26.286-102.503h11.088v-8.902h-34.22v8.902h12.128v3.226c0 13.926-3.07 24.352-15.282 32.686l6.149 7.851c5.896-3.31 13.263-12.948 14.714-19.496 1.86 6.79 8.418 14.64 13.431 17.804l6.149-8.26c-11.32-7.116-14.157-16.333-14.157-30.585v-3.226zm15.05 56.627h10.436v-71.762h-10.436v24.11h-8.66v9.953h8.66v37.7zm0 116.818h10.436v-71.751h-10.436v24.1h-8.66v9.952h8.66v37.7zm26.212-73.212h-10.51v76.702h10.51V274.38zm-10.51-40.116h10.51v-76.702h-10.51v76.702zm61.693 53.79h-44.73v8.733h44.73v-8.734zm-33.653-119.982h23.06v-8.335h-23.06v8.335zm-11.077 11.897h44.73v-8.734h-44.73v8.734zm60.831 12.707h10.28v-9.312h-10.28v-25.802h-11.33v57.763h11.33v-22.65zm25.214 120.212c-4.688.084-9.375.084-14.557.084l.978 9.144c4.446 0 14.798-.252 23.942-.652 8.334-.399 19.254-1.46 24.11-2.017l-.642-8.492c-3.972.64-16.669 1.45-23.059 1.692v-14.809h-10.772v15.05zm26.306-113.097 6.138-8.902c-9.617-3.31-17.058-10.11-17.058-22.407v-6.306h-11.655v6.873c0 11.235-6.632 20.148-18.12 24.11l5.74 8.892c7.282-2.344 16.1-9.628 18.36-16.816 2.754 6.463 10.689 12.612 16.595 14.556m21.272-14.483h10.678v-9.301H280.38v-18.445h-11.413v44.898h11.413v-17.152zm42.05-4.288c0 5.34-4.056 8.734-9.227 8.734-5.182 0-9.144-3.395-9.144-8.734 0-5.423 3.962-8.818 9.144-8.818 5.097 0 9.227 3.48 9.227 8.818m10.994-.084c0-10.752-8.734-17.95-20.221-17.95s-20.137 7.114-20.137 17.95c0 10.762 8.65 18.12 20.137 18.12s20.221-7.358 20.221-18.12m11.655 22.334h11.488v-45.708h-11.488v9.217h-9.71l.325 9.627h9.385v7.694h-9.385l-.326 9.627h9.711v9.543zm.4 15.292c0 3.804-5.58 6.39-15.607 6.39-9.711 0-15.46-2.586-15.46-6.39 0-4.047 5.749-6.558 15.46-6.558 10.026 0 15.607 2.595 15.607 6.558m11.571 0c0-9.712-10.194-15.702-27.178-15.702-16.837 0-27.021 5.99-27.021 15.702 0 9.385 10.184 15.365 27.02 15.365 16.985 0 27.18-5.98 27.18-15.365m-3.963 83.564h10.594v-9.385h-10.594V274.38h-11.319v45.382h11.32v-17.636zm11.55 26.78 6.39 8.901c24.92-13.673 34.053-33 34.705-55.492h-36.407v9.375h24.352c-1.535 14.65-12.297 29.375-29.04 37.216m41.095-163.42h-36.407v9.386h24.352c-1.545 14.64-12.297 29.365-29.04 37.205l6.39 8.912c24.92-13.684 34.053-33.011 34.705-55.503m19.821 30.416h11.088v-9.375h-11.088v-28.965h-11.33v76.691h11.33v-38.35zm36.627 118.121v-1.702c0-15.933-7.935-28.072-16.028-35.67h-9.542c7.693 8.649 14.156 21.755 14.156 35.512v2.586c0 13.915-6.463 26.38-14.156 34.945h9.542c8.093-7.598 16.028-19.653 16.028-35.67" style="fill:#231815"/></svg>